<?xml version="1.0" standalone="no"?>
<!DOCTYPE svg PUBLIC "-//W3C//DTD SVG 20010904//EN"
 "http://www.w3.org/TR/2001/REC-SVG-20010904/DTD/svg10.dtd">
<svg version="1.0" xmlns="http://www.w3.org/2000/svg"
 width="284.000000pt" height="284.000000pt" viewBox="0 0 284.000000 284.000000"
 preserveAspectRatio="xMidYMid meet">
<metadata>
Created by potrace 1.11, written by Peter Selinger 2001-2013
</metadata>
<g transform="translate(0.000000,284.000000) scale(0.100000,-0.100000)"
fill="#000000" stroke="none">
<path d="M808 2486 l-607 -351 -1 -715 0 -715 473 -272 c259 -150 534 -308
609 -352 l137 -79 219 126 c121 70 396 228 611 352 l391 225 0 715 -1 715
-107 61 c-59 33 -325 186 -592 341 -267 154 -494 284 -505 290 -17 8 -119 -48
-627 -341z m808 -494 l309 -128 3 -155 c2 -85 0 -195 -3 -245 l-7 -90 -59 -40
c-32 -21 -59 -41 -59 -44 0 -3 29 -20 65 -38 l65 -32 0 -205 c0 -113 -2 -205
-5 -205 -3 0 -111 53 -240 117 l-235 118 0 202 c0 112 -1 206 -2 211 -1 4 35
33 81 64 71 49 80 58 64 66 -24 13 -290 122 -297 122 -3 0 -7 -169 -8 -376
l-3 -376 -87 -60 -87 -60 -98 69 -98 69 -3 417 -2 417 192 154 c106 85 196
155 199 155 3 1 144 -57 315 -127z"/>
</g>
</svg>
